<svg width="19" height="21" viewBox="0 0 19 21" fill="none" xmlns="http://www.w3.org/2000/svg">
<path d="M18.2995 19.791L12.9385 13.8262C14.3059 12.3591 15.153 10.3365 15.153 8.10583C15.153 3.63604 11.7544 0 7.57652 0C3.39861 0 0 3.63604 0 8.10583C0 12.5756 3.39861 16.2117 7.57652 16.2117C9.4104 16.2117 11.0935 15.5103 12.4053 14.3465L17.7792 20.3259C17.8499 20.4051 17.9444 20.4444 18.0393 20.4444C18.1295 20.4444 18.2194 20.4085 18.2894 20.3368C18.4329 20.1889 18.4373 19.9446 18.2995 19.791ZM7.57652 15.4397C3.79656 15.4397 0.721573 12.1499 0.721573 8.10583C0.721573 4.06179 3.79656 0.771984 7.57652 0.771984C11.3565 0.771984 14.4315 4.06179 14.4315 8.10583C14.4315 12.1499 11.3561 15.4397 7.57652 15.4397Z" fill="#565656"/>
</svg>
